<?xml version="1.0" encoding="utf-8"?>
<!-- Generator: Adobe Illustrator 23.0.6, SVG Export Plug-In . SVG Version: 6.00 Build 0)  -->
<svg version="1.1" id="Layer_1" xmlns="http://www.w3.org/2000/svg" xmlns:xlink="http://www.w3.org/1999/xlink" x="0px" y="0px"
	 width="864px" height="864px" viewBox="0 0 864 864" enable-background="new 0 0 864 864" xml:space="preserve">
<g>
	<path d="M476.3967,608.2119c8.7253,1.4171,16.4663,2.125,23.304,2.125c9.6753,0,17.3667-1.3901,23.5144-4.2499
		c0.2236-0.104,0.4399-0.2231,0.6475-0.3561c10.6909-6.8536,16.1504-16.4114,14.6042-25.567
		c-1.2051-7.1342-6.4785-12.9833-14.8267-16.7047c4.3953-6.7929,5.4192-14.034,2.748-20.65
		c-3.4397-8.5194-12.583-14.0242-23.2942-14.0242c-3.9766,0-8.0261,0.7346-12.0457,2.1841
		c-5.5496,1.0157-14.5781,5.1874-32.2798,23.7676c9.7942-19.0123,13.9509-33.9749,12.584-45.2723
		c-0.0295-0.2448-0.0754-0.4872-0.1377-0.7258c-3.5378-13.573-12.1523-22.0058-22.4817-22.0075c-0.0002,0-0.0029,0-0.0034,0
		c-6.3123,0-12.4526,3.1877-17.7903,9.1237c-4.7639-5.8384-10.8416-9.062-17.4148-9.0628
		c-5.7173-0.0001-11.2288,2.4727-15.5227,6.9628c-5.4785,5.7292-8.3225,13.8852-8.0376,23.016
		c-0.7534,5.5876,0.4126,15.4545,12.5691,38.0073c-15.0327-15.1913-27.9558-23.7474-39.1145-25.9462
		c-0.2412-0.0476-0.4861-0.0789-0.7322-0.0937c-0.9321-0.0561-1.8655-0.0845-2.7739-0.0846c-0.0007,0-0.0027,0-0.0037,0
		c-11.5786,0-20.6714,4.7206-24.3254,12.6289c-1.8481,4.0003-3.5569,11.6058,2.3418,21.7498
		c-10.1912,3.9359-14.4558,11.7199-14.9141,18.601c-0.7878,11.8271,8.2922,22.8009,22.1404,26.8461
		c3.6418,1.7396,8.543,2.5864,14.9526,2.5864c6.6492,0,14.9321-0.8997,24.9851-2.7223c-19.0535,9.572-31.1658,19.194-36.707,29.108
		c-0.1201,0.2151-0.2256,0.4381-0.3162,0.6674c-4.0105,10.1857-3.7102,19.8467,0.8245,26.5058
		c3.6907,5.4198,9.822,8.4045,17.2646,8.4045c2.1819,0,4.4651-0.2526,6.8357-0.7548c0.3538,6.8395,2.8438,11.4144,5.2354,14.2739
		c3.8848,4.6447,9.5259,7.2026,15.8848,7.2026c9.1719,0,18.2319-5.3139,24.3342-14.2446
		c3.9385-4.1088,8.8655-12.9001,12.3391-38.8525c3.2771,21.5211,8.7791,36.2665,16.6277,44.6818
		c0.1685,0.1803,0.3484,0.3489,0.5393,0.5051c6.4934,5.3124,13.3345,8.1204,19.7837,8.1204c5.575,0,10.4517-2.0901,14.103-6.0441
		c2.6042-2.8203,5.4624-7.6069,6.2544-15.3804c2.3755,0.625,4.7058,0.9395,6.9761,0.9395c8.2686,0,15.2888-4.3359,18.7788-11.5984
		c4.4121-9.1812,2.4978-20.7848-4.9822-30.4023C506.1851,626.523,499.4434,619.2493,476.3967,608.2119z M492.4653,536.3014
		c3.7017-1.3925,7.2927-2.023,10.6287-2.023c16.9739,0,27.2773,16.3452,11.2212,31.8354
		c23.6467,5.673,24.2825,23.6454,6.5825,34.9922c-5.5007,2.5591-12.6504,3.7373-21.197,3.7373
		c-13.4409,0-30.3364-2.9207-49.6694-7.9688c-2.4438-0.9622-4.9644-1.9404-7.6165-2.946c-0.0779-0.0295-0.1582-0.04-0.2368-0.0659
		l-0.303-1.8881l13.6387-4.3298c1.332-1.7492,1.0789-3.0376-1.3933-3.6807l-12.9294,4.7508l0.001-0.0015l-1.6389-2.0972
		c0.2029-0.217,0.3958-0.4452,0.564-0.6975c1.4749-2.211,2.894-4.3803,4.2639-6.5134
		C467.0908,551.9247,483.0327,537.7256,492.4653,536.3014z M395.4734,517.0758c-0.6609-14.7618,8.3169-24.7917,18.0503-24.7903
		c6.1282,0.0009,12.5576,3.978,17.0657,13.2541c5.6323-9.1758,12.157-13.3159,18.1428-13.3149
		c7.5334,0.0013,14.2117,6.5625,17.1667,17.8997c1.8745,15.4931-8.3311,38.5536-25.9795,66.0601
		c-1.6721,2.0255-3.3835,4.1188-5.1619,6.3294c-0.0537,0.0668-0.0913,0.1414-0.1411,0.21l-1.8865-0.2964l0.1096-14.3091
		c-0.6233-0.9014-1.2598-1.3928-1.9119-1.3928c-0.6563,0-1.3286,0.498-2.0195,1.577l0.5103,13.7628l0.0005-0.0002l-0.0005,0.0024
		v-0.0023l-2.4983,0.9072c-0.1433-0.2604-0.3035-0.5139-0.4912-0.7523c-1.6428-2.0847-3.2644-4.1058-4.866-6.0669
		C402.4736,546.05,393.9045,526.485,395.4734,517.0758z M360.1045,605.5723c-5.7905,0-10.1045-0.7493-12.9612-2.2376
		c-23.2051-6.4305-26.53-33.3074-0.0867-36.962c-15.1379-17.7841-6.447-32.2271,12.856-32.2255
		c0.7959,0.0001,1.6133,0.0247,2.4446,0.0747c15.3064,3.0159,34.0664,19.8611,54.7468,45.1584
		c1.4099,2.2215,2.8728,4.5016,4.4265,6.8818c0.0474,0.0722,0.103,0.1353,0.1531,0.2047l-0.8628,1.6952l-13.571-4.5383
		c-2.1069,0.6285-2.6614,1.8185-1.043,3.7949l13.2456,3.7802l0.0012,0.0004l0.0884,2.6513
		c-0.2942,0.0558-0.5872,0.1304-0.874,0.2361c-2.5066,0.9216-4.9441,1.8425-7.3184,2.763
		C388.4978,602.6843,371.4546,605.5723,360.1045,605.5723z M414.1748,676.0134c-5.4751,8.259-13.1978,12.2443-20.0637,12.2443
		c-9.8186,0-17.8835-8.1528-15.106-23.6154c-4.8374,1.9892-9.1443,2.8936-12.8496,2.8936c-13.5217,0-19.0239-12.049-12.9775-27.4041
		c7.6079-13.6119,29.4187-26.2236,59.8557-38.042c2.5876-0.6629,5.228-1.3523,7.9658-2.0901
		c0.0818-0.022,0.1548-0.0599,0.2351-0.0854l1.344,1.3459l-8.52,11.4966c-0.0408,1.6175,0.468,2.5299,1.6885,2.5299
		c0.438,0,0.9678-0.1175,1.5962-0.3622l7.699-11.4223l0.0017-0.0019l2.5999,0.7526c-0.0374,0.2986-0.0569,0.6009-0.0442,0.908
		c0.1011,2.4207,0.2202,4.784,0.354,7.1009C425.6523,648.2394,421.0288,669.2941,414.1748,676.0134z M431.1636,599.7443
		c-0.3843-0.2242-0.7896-0.4199-1.2319-0.5481l-2.6431-0.765c-0.2258-0.3763-0.5005-0.7303-0.823-1.0532l-1.5403-1.5423
		c0.0913-0.4292,0.1504-0.8687,0.1353-1.323l-0.0913-2.7482c0.2881-0.3321,0.54-0.7034,0.7473-1.1106l0.9927-1.9507
		c0.4358-0.0461,0.8706-0.1256,1.2971-0.2805l2.5793-0.9368c0.406,0.172,0.8386,0.2972,1.2917,0.3683l2.1636,0.34
		c0.1787,0.3995,0.3892,0.7884,0.6685,1.1457l1.6914,2.1642c-0.0376,0.439-0.0225,0.8889,0.0498,1.341l0.3433,2.1366
		c-0.3293,0.2964-0.6279,0.6354-0.8843,1.0163l-1.5347,2.2806c-0.429,0.1004-0.8513,0.254-1.2588,0.463L431.1636,599.7443z
		 M495.0688,667.9826c-3.6538,0-7.8328-1.0648-12.4087-3.4952c1.2646,15.8558-5.5225,23.9803-14.9248,23.9803
		c-4.9719,0-10.6768-2.2742-16.3054-6.8788c-10.7148-11.4884-16.0593-36.3875-17.9753-69.3397
		c0.1538-2.4181,0.301-4.8951,0.4358-7.4917c0.0042-0.0792-0.0083-0.1554-0.0076-0.234l1.7424-0.8947l8.3433,11.6256
		c0.5247,0.183,0.99,0.2789,1.3894,0.2789c1.1826,0,1.7937-0.839,1.6782-2.7443l-8.5232-10.821l0.0012-0.0007l1.4861-2.208
		c0.2708,0.1267,0.5503,0.238,0.8442,0.3204c2.5583,0.717,5.0449,1.3865,7.4885,2.0272
		c33.1777,13.079,51.6235,23.839,55.9019,32.3677C516.3591,649.6271,510.241,667.9826,495.0688,667.9826z"/>
	<path d="M554.7136,582.9396c-6.165-1.0795-12.3015,4.1848-12.2546,10.4246c-0.4412,7.2254,7.6851,13.5121,14.5164,10.6692
		c5.4424-1.6892,8.5203-7.7883,7.0093-13.2117C562.8867,586.6553,559.0962,583.1741,554.7136,582.9396z M552.312,599.4075
		c-2.665-0.5914-4.7954-3.1903-4.7104-5.9394c0.272-2.8245,2.6934-5.1514,5.386-5.6953c2.5706,0.0178,5.0952,1.7159,5.9395,4.1747
		l0,0C560.5781,595.7476,556.2622,600.3646,552.312,599.4075z"/>
	<path d="M318.7244,593.4755c0.0471-6.2398-6.0896-11.5041-12.2546-10.4246c-4.3823,0.2345-8.1729,3.7157-9.2708,7.8821
		c-1.5112,5.4233,1.5669,11.5225,7.0093,13.2117C311.0396,606.9877,319.1655,600.7009,318.7244,593.4755z M302.2566,592.0588
		c0.8442-2.4587,3.3689-4.1569,5.9392-4.1747c2.6929,0.5439,5.1143,2.8708,5.3862,5.6953c0.0847,2.7491-2.0457,5.348-4.7104,5.9394
		C304.9214,600.4759,300.6052,595.8588,302.2566,592.0588z"/>
	<path d="M427.2744,485.5482c6.8311,2.8429,14.9573-3.4438,14.5161-10.6693c0.0469-6.2398-6.0896-11.5041-12.2544-10.4246
		c-4.3828,0.2346-8.1733,3.7158-9.271,7.8821C418.7539,477.7599,421.832,483.8589,427.2744,485.5482z M425.3228,473.4623
		c0.8442-2.4588,3.3689-4.1569,5.9395-4.1747c2.6926,0.5439,5.1138,2.8708,5.3857,5.6953c0.085,2.7491-2.0454,5.348-4.7102,5.9394
		C427.9875,481.8794,423.6714,477.2623,425.3228,473.4623z"/>
	<path d="M429.5361,679.9683c-4.3828,0.2345-8.1733,3.7158-9.271,7.8821c-1.5112,5.4234,1.5669,11.5225,7.0093,13.2117
		c6.8311,2.8429,14.9573-3.4438,14.5161-10.6693C441.8374,684.1531,435.7009,678.8889,429.5361,679.9683z M431.9377,696.4362
		c-3.9502,0.9572-8.2664-3.6599-6.615-7.46c0.8442-2.4588,3.3689-4.1569,5.9395-4.1747c2.6926,0.5439,5.1138,2.8708,5.3857,5.6953
		C436.7329,693.246,434.6025,695.8448,431.9377,696.4362z"/>
	<path d="M554.4531,633.7042c-8.6995-12.0644-23.2842-18.414-37.7017-20.2552c-7.7642-0.8998-15.771-1.4254-23.4548,0.4011
		c17.0701,7.2311,28.4294,22.4932,43.075,33.1989c4.5393,3.1656,9.8933,5.423,15.4604,5.6238
		c3.5554,0.1828,7.769-2.0145,7.9771-5.9193h-0.0002C559.98,641.8635,557.0703,637.5837,554.4531,633.7042z M539.7961,642.5966
		c-13.2488-9.1534-24.53-21.412-39.5969-27.7432c10.9185,0.6942,21.9099,2.8856,31.8545,7.5382
		c9.9021,4.9736,19.2661,13.1041,22.1306,24.1969C549.0769,647.2365,544.0271,645.3748,539.7961,642.5966z"/>
	<path d="M369.303,613.7444c-7.7886-1.3085-15.7424-0.2487-23.4292,1.1685c-14.262,2.8013-28.3894,10.1121-36.2625,22.7314
		c-2.3521,4.0458-4.9688,8.5106-4.4712,13.3782l0,0c0.4685,3.8821,4.8198,5.7927,8.355,5.3725
		c5.5415-0.5726,10.7324-3.183,15.0498-6.6452C342.4417,638.0886,352.7546,622.101,369.303,613.7444z M324.8301,645.5364
		c-4.0356,3.055-8.9495,5.2502-14.0889,4.9454c2.1162-11.2596,10.9155-19.9981,20.4626-25.6229
		c9.6113-5.3073,20.4314-8.2289,31.2791-9.6518C347.8735,622.5317,337.437,635.5175,324.8301,645.5364z"/>
	<path d="M339.1846,508.8816c15.8088,8.8981,34.4045,12.9182,48.0549,25.462c-1.5193-7.7503-5.3127-14.8209-9.3469-21.5157
		c-7.6455-12.3609-19.4644-23.0075-34.0481-25.9308c-4.615-0.7759-9.7153-1.6521-14.0957,0.5283l-0.0002-0.0001
		c-3.468,1.806-3.7234,6.5514-2.0847,9.712C330.1516,502.1217,334.4233,506.0603,339.1846,508.8816z M363.4165,502.6019
		c8.3528,7.1256,14.8987,16.2231,20.0515,25.8741c-12.0015-11.0928-27.8311-16.2858-41.6489-24.5553
		c-4.2805-2.7007-8.0662-6.5266-9.5913-11.4439C343.5112,490.4909,354.7891,495.6481,363.4165,502.6019z"/>
	<path d="M531.4531,497.0721c1.6384-3.1607,1.3833-7.9061-2.085-9.712v0.0001c-4.3804-2.1804-9.4807-1.3042-14.0957-0.5283
		c-14.584,2.9233-26.4026,13.5699-34.0483,25.9308c-4.0339,6.6948-7.8276,13.7654-9.3467,21.5157
		c13.6501-12.5439,32.2458-16.564,48.0549-25.4621C524.6934,505.9951,528.9651,502.0564,531.4531,497.0721z M475.6489,528.4107
		c5.1526-9.6511,11.6987-18.7485,20.0513-25.8741c8.6274-6.9537,19.9055-12.1109,31.189-10.1251
		c-1.5254,4.9174-5.3108,8.7431-9.5916,11.4439C503.48,512.1249,487.6504,517.3179,475.6489,528.4107z"/>
	<path d="M290.4585,601.8527H19.4712c-1.5837,0-2.8794,1.2958-2.8794,2.8795s1.2957,2.8795,2.8794,2.8795h270.9873
		c1.5837,0,2.8794-1.2958,2.8794-2.8795S292.0422,601.8527,290.4585,601.8527z"/>
	<path d="M841.7124,601.8527H570.7251c-1.5837,0-2.8794,1.2958-2.8794,2.8795s1.2957,2.8795,2.8794,2.8795h270.9873
		c1.5835,0,2.8794-1.2958,2.8794-2.8795S843.2959,601.8527,841.7124,601.8527z"/>
</g>
<g>
	<path d="M400.6563,212.199c8.1765,8.2778,19.8472,12.2827,31.3433,12.6475c11.4961-0.3643,23.167-4.3696,31.3442-12.6475
		c7.0154-7.3053,11.8191-16.5166,19.5137-23.2045c3.897-3.6676,8.5486-6.3214,12.948-9.2953
		c-4.7051-0.4348-9.3108-1.6699-14.0383-1.9291c-7.1758-0.0763-14.6182,0.2059-21.2371,3.2942
		c-9.814,4.415-16.8145,13.2302-26.6355,17.6149c-0.6255,0.2559-1.2573,0.4956-1.8948,0.7205
		c-0.6375-0.2249-1.2688-0.4651-1.8943-0.7205c-9.8218-4.3846-16.8218-13.1993-26.6355-17.6149
		c-6.6189-3.0887-14.0613-3.3705-21.2371-3.2942c-4.7275,0.2592-9.3333,1.4943-14.0383,1.9291
		c4.4001,2.9739,9.051,5.6277,12.948,9.2953C388.8364,195.6819,393.6401,204.8937,400.6563,212.199z M382.376,182.066
		c0.5493-0.0059,1.1001-0.0094,1.6516-0.0094c5.925,0,12.1614,0.3518,17.6255,2.9014c4.4685,2.0105,8.3408,5.054,12.4414,8.2759
		c4.3503,3.4187,8.8491,6.9539,14.26,9.3687c0.8145,0.3352,1.511,0.6003,2.2146,0.8486l1.4307,0.5049l1.4307-0.5049
		c0.7031-0.2483,1.3994-0.5127,2.0894-0.7947c5.5354-2.4688,10.0337-6.0032,14.384-9.4219
		c4.1003-3.2219,7.9744-6.2654,12.3894-8.2518c5.5195-2.5743,11.7559-2.9261,17.6819-2.9261c0.5508,0,1.1006,0.0035,1.6492,0.0094
		c0.8574,0.0487,1.7178,0.1348,2.5859,0.2448c-1.4524,1.073-2.8757,2.2225-4.2351,3.4958
		c-4.6875,4.0903-8.3074,8.9462-11.8083,13.6432c-2.6106,3.5017-5.0759,6.8097-7.9219,9.7737
		c-6.7178,6.7987-17.0217,10.9377-28.2451,11.3246c-11.2246-0.3876-21.5286-4.5266-28.2874-11.3683
		c-2.8044-2.921-5.2703-6.2297-7.8811-9.7321c-3.5007-4.6964-7.1199-9.5515-11.8066-13.6404
		c-1.3586-1.274-2.7827-2.4236-4.2346-3.4966C380.6584,182.2008,381.5186,182.1147,382.376,182.066z"/>
	<path d="M431.9998,196.6448c5.6272-3.9421,10.0056-9.679,12.387-16.1322c3.5159-9.486,3.0959-21.1532-3.5073-29.2206
		c-2.3696-2.9749-5.4507-5.2498-8.8796-6.7727c-3.4285,1.5229-6.5095,3.7975-8.8792,6.7727
		c-6.6038,8.0677-7.0229,19.7346-3.5073,29.2206C421.9949,186.9653,426.3728,192.7026,431.9998,196.6448z M422.9014,157.0527
		c1.9861-3.876,5.2573-6.9058,9.0984-8.8506c3.8416,1.9448,7.1125,4.9746,9.0989,8.8506c2.7703,4.8857,3.051,10.7004,2.4609,16.1692
		c-1.1042,7.7363-5.3916,14.9727-11.5598,19.74c-6.1677-4.7673-10.4551-12.0037-11.5598-19.74
		C419.8499,167.7532,420.1311,161.9385,422.9014,157.0527z"/>
	<path d="M533.4954,229.2471c-1.5176-3.6753-5.1089-5.8636-8.3494-7.854c-10.4927-6.0012-23.418-5.7957-34.7036-2.3108
		c-6.0469,1.9446-12.1475,4.2476-17.2183,8.1821c15.0605-0.3889,28.5957,7.0839,43.0303,10.0808
		c4.4229,0.8159,9.1428,0.6862,13.3291-1.0369c2.6921-1.0602,5.071-4.1025,3.9121-7.0613H533.4954z M517.2913,232.8998
		c-12.8794-2.318-25.3474-7.5948-38.623-7.2137c8.3115-3.1571,17.1804-5.231,26.1021-5.1321
		c8.9983,0.3508,18.6597,3.218,24.5083,10.462C525.7175,233.2124,521.3555,233.5328,517.2913,232.8998z"/>
	<path d="M340.5847,221.3931c-3.2405,1.9904-6.832,4.1787-8.3496,7.854l0,0c-1.1594,2.9587,1.22,6.0011,3.9119,7.0613
		c4.1863,1.723,8.9063,1.8528,13.3291,1.0369c14.4348-2.9969,27.97-10.4697,43.0305-10.0808
		c-5.0708-3.9346-11.1714-6.2375-17.2183-8.1821C364.0024,215.5974,351.0771,215.3918,340.5847,221.3931z M348.4392,232.8998
		c-4.0647,0.6331-8.4263,0.3126-11.9873-1.8838c5.8486-7.244,15.5103-10.1112,24.5083-10.462
		c8.9219-0.0989,17.7908,1.975,26.1021,5.1321C373.7866,225.3049,361.3188,230.5818,348.4392,232.8998z"/>
	<polygon points="431.6887,232.4943 431.6887,232.4938 431.6819,232.4943 	"/>
	<path d="M577.1113,175.7438c-5.833-2.3102-12.2544-2.1351-18.4004-1.6241c-14.7856,2.2649-27.802,10.3632-39.5757,19.1707
		c-7.3967,5.658-14.9541,11.1332-23.0137,15.8379c-19.4993,11.4282-41.4473,19.741-64.1213,21.0759
		c-22.6746-1.335-44.6223-9.6477-64.1223-21.0759c-8.0596-4.7047-15.6165-10.1799-23.0132-15.8379
		c-11.7737-8.8075-24.79-16.9056-39.5762-19.1707c-6.146-0.511-12.5669-0.686-18.3999,1.6241
		c-11.1025,3.8665-20.4744,12.7653-24.2339,23.9747c-2.9968,8.861-2.8599,18.7053,0.1831,27.5356
		c10.1729,29.6113,42.2954,25.6753,51.5786,7.3584c2.8516-4.6134,3.4692-10.3018,2.5542-15.571
		c-1.3418-7.1375-7.0229-13.291-14.1069-15.0146c-5.0098-1.1589-10.5154-0.854-15.0828,1.6475
		c-2.9587,1.5557-5.5823,4.1178-6.4744,7.4119c-0.6177,2.0818,0.1602,4.2019,0.77,6.2073
		c7.3127-11.9456,17.501-9.8594,22.9148-6.6492c7.7092,4.4454,9.6233,15.6322,4.9182,22.9146
		c-4.0874,6.5425-12.1782,9.5085-19.636,9.2953c-5.5129,0.1984-11.1636-1.5789-15.2734-5.3151
		c-4.3616-3.9802-6.9465-9.5239-8.3955-15.167c-2.4712-9.0667-2.0588-19.1553,2.3181-27.5815
		c5.7493-11.1941,17.9348-18.7051,30.5017-18.9414c11.6213,0.3584,22.625,5.0249,32.4312,11.0111
		c9.8826,5.9635,18.7131,13.4894,28.6262,19.3993c19.9565,12.1167,42.147,21.3054,65.5269,23.6846
		c1.8865,0.2195,3.7817,0.3828,5.6797,0.5044h0.6228c1.8982-0.1216,3.7935-0.2849,5.6799-0.5044
		c23.3799-2.3792,45.5703-11.5679,65.5269-23.6846c9.9131-5.9099,18.7434-13.4358,28.6262-19.3993
		c9.8062-5.9862,20.8098-10.6527,32.4312-11.0112c12.5669,0.2365,24.7524,7.7474,30.5017,18.9415
		c4.377,8.4263,4.7893,18.5149,2.3181,27.5815c-1.449,5.6431-4.0339,11.1868-8.3955,15.167
		c-4.1101,3.7362-9.7605,5.5134-15.2737,5.3151c-7.458,0.2133-15.5483-2.7528-19.6357-9.2953
		c-4.7051-7.2823-2.791-18.4691,4.9182-22.9146c5.4138-3.2102,15.6018-5.2964,22.9148,6.6492
		c0.6096-2.0054,1.3877-4.1257,0.77-6.2073c-0.8926-3.2941-3.5156-5.8563-6.4744-7.4119
		c-4.5674-2.5015-10.073-2.8064-15.0828-1.6475c-7.0845,1.7236-12.7651,7.8772-14.1074,15.0146
		c-0.9146,5.2693-0.2971,10.9576,2.5547,15.571c9.2827,18.3169,41.4058,22.2529,51.5786-7.3585
		c3.043-8.8302,3.1799-18.6746,0.1831-27.5356C597.5857,188.509,588.2139,179.6102,577.1113,175.7438z"/>
	<path d="M247.7571,207.1022c-3.5615,0.1906-6.6418,3.0197-7.5339,6.4055c-1.228,4.4073,1.2732,9.3639,5.696,10.7367
		c5.5515,2.3103,12.1553-2.7987,11.7966-8.6705C257.7539,210.5029,252.7671,206.225,247.7571,207.1022z M249.709,220.485
		c-3.2104,0.7778-6.7178-2.9742-5.376-6.0624c0.6863-1.9982,2.738-3.3782,4.8267-3.3927c2.1885,0.442,4.156,2.333,4.377,4.6283
		C253.6057,217.8923,251.8745,220.0044,249.709,220.485z"/>
	<path d="M233.9033,213.2637H41.8267c-1.3657,0-2.4829,1.1173-2.4829,2.4829v0.3064c0,1.3655,1.1172,2.4828,2.4829,2.4828h192.0767
		c1.3655,0,2.4829-1.1173,2.4829-2.4828v-0.3064C236.3862,214.381,235.2688,213.2637,233.9033,213.2637z"/>
	<path d="M25.8459,207.1022c-3.5615,0.1906-6.6418,3.0197-7.5339,6.4055c-1.228,4.4073,1.2732,9.3639,5.696,10.7367
		c5.5515,2.3103,12.1553-2.7987,11.7966-8.6705C35.8428,210.5029,30.856,206.225,25.8459,207.1022z M27.7979,220.485
		c-3.2104,0.7778-6.7178-2.9742-5.376-6.0624c0.6863-1.9982,2.738-3.3782,4.8267-3.3927c2.1885,0.442,4.156,2.333,4.377,4.6283
		C31.6946,217.8923,29.9634,220.0044,27.7979,220.485z"/>
	<path d="M836.0273,207.1022c-3.5615,0.1906-6.6421,3.0197-7.5342,6.4055c-1.228,4.4073,1.2734,9.3639,5.6963,10.7367
		c5.5513,2.3103,12.155-2.7987,11.7966-8.6705C846.0242,210.5029,841.0374,206.225,836.0273,207.1022z M837.979,220.485
		c-3.2102,0.7778-6.7178-2.9742-5.3757-6.0624c0.6863-1.9982,2.7378-3.3782,4.8267-3.3927c2.1882,0.442,4.156,2.333,4.377,4.6283
		C841.876,217.8923,840.1445,220.0044,837.979,220.485z"/>
	<path d="M822.1733,213.2637H630.0967c-1.3655,0-2.4829,1.1173-2.4829,2.4829v0.3064c0,1.3655,1.1174,2.4828,2.4829,2.4828h192.0767
		c1.3657,0,2.4829-1.1173,2.4829-2.4828v-0.3064C824.6563,214.381,823.5391,213.2637,822.1733,213.2637z"/>
	<path d="M614.1162,207.1022c-3.5615,0.1906-6.6421,3.0197-7.5342,6.4055c-1.228,4.4073,1.2734,9.3639,5.6963,10.7367
		c5.5513,2.3103,12.155-2.7987,11.7966-8.6705C624.113,210.5029,619.1262,206.225,614.1162,207.1022z M616.0679,220.485
		c-3.2102,0.7778-6.7178-2.9742-5.3757-6.0624c0.6863-1.9982,2.7378-3.3782,4.8267-3.3927c2.1882,0.442,4.156,2.333,4.377,4.6283
		C619.9648,217.8923,618.2334,220.0044,616.0679,220.485z"/>
</g>
</svg>
