<svg width="780" height="488" viewBox="0 0 780 488" fill="none" xmlns="http://www.w3.org/2000/svg">
<mask id="path-1-inside-1" fill="white">
<path fill-rule="evenodd" clip-rule="evenodd" d="M460.166 149.001L149.001 0L6.14822e-05 311.165L311.165 460.166L460.166 149.001ZM270.287 302.826L266.435 302.785C257.305 302.689 245.337 301.136 230.53 298.126C268.603 232.612 313.18 172.732 364.26 118.485L125.877 115.966L111.927 180.45C117.913 181.084 131.883 182.231 153.837 183.889C156.532 171.933 162.767 162.44 172.543 155.409C182.322 148.094 193.203 144.499 205.187 144.626C217.17 144.752 226.578 145.565 233.411 147.064C186.908 200.218 144.033 261.115 104.785 329.755L349.16 332.337C356.479 314.723 362.41 293.527 366.952 268.75C353.834 268.04 336.721 267.289 315.613 266.495C312.33 280.157 306.951 289.659 299.475 295.002C292 300.345 282.27 302.953 270.287 302.826Z"/>
</mask>
<path fill-rule="evenodd" clip-rule="evenodd" d="M460.166 149.001L149.001 0L6.14822e-05 311.165L311.165 460.166L460.166 149.001ZM270.287 302.826L266.435 302.785C257.305 302.689 245.337 301.136 230.53 298.126C268.603 232.612 313.18 172.732 364.26 118.485L125.877 115.966L111.927 180.45C117.913 181.084 131.883 182.231 153.837 183.889C156.532 171.933 162.767 162.44 172.543 155.409C182.322 148.094 193.203 144.499 205.187 144.626C217.17 144.752 226.578 145.565 233.411 147.064C186.908 200.218 144.033 261.115 104.785 329.755L349.16 332.337C356.479 314.723 362.41 293.527 366.952 268.75C353.834 268.04 336.721 267.289 315.613 266.495C312.33 280.157 306.951 289.659 299.475 295.002C292 300.345 282.27 302.953 270.287 302.826Z" fill="white"/>
<path d="M149.001 0L151.161 -4.50964L146.651 -6.66907L144.492 -2.15944L149.001 0ZM460.166 149.001L464.676 151.161L466.835 146.651L462.326 144.492L460.166 149.001ZM6.14822e-05 311.165L-4.50958 309.006L-6.66901 313.515L-2.15938 315.675L6.14822e-05 311.165ZM311.165 460.166L309.006 464.676L313.515 466.835L315.675 462.326L311.165 460.166ZM266.435 302.785L266.488 297.786L266.488 297.786L266.435 302.785ZM270.287 302.826L270.34 297.826L270.34 297.826L270.287 302.826ZM230.53 298.126L226.207 295.614L222.707 301.638L229.534 303.026L230.53 298.126ZM364.26 118.485L367.9 121.912L375.722 113.606L364.313 113.485L364.26 118.485ZM125.877 115.966L125.93 110.966L121.852 110.923L120.99 114.909L125.877 115.966ZM111.927 180.45L107.04 179.393L105.863 184.836L111.4 185.422L111.927 180.45ZM153.837 183.889L153.46 188.875L157.766 189.2L158.715 184.989L153.837 183.889ZM172.543 155.409L175.462 159.469L175.5 159.441L175.538 159.413L172.543 155.409ZM233.411 147.064L237.174 150.356L242.741 143.992L234.482 142.18L233.411 147.064ZM104.785 329.755L100.445 327.273L96.2182 334.665L104.732 334.755L104.785 329.755ZM349.16 332.337L349.107 337.337L352.482 337.373L353.777 334.256L349.16 332.337ZM366.952 268.75L371.87 269.651L372.895 264.064L367.222 263.757L366.952 268.75ZM315.613 266.495L315.801 261.499L311.709 261.345L310.752 265.327L315.613 266.495ZM299.475 295.002L296.568 290.934L296.568 290.934L299.475 295.002ZM146.842 4.50964L458.007 153.511L462.326 144.492L151.161 -4.50964L146.842 4.50964ZM4.5097 313.324L153.511 2.15944L144.492 -2.15944L-4.50958 309.006L4.5097 313.324ZM313.324 455.657L2.1595 306.655L-2.15938 315.675L309.006 464.676L313.324 455.657ZM455.657 146.842L306.655 458.007L315.675 462.326L464.676 151.161L455.657 146.842ZM266.382 307.785L270.234 307.826L270.34 297.826L266.488 297.786L266.382 307.785ZM229.534 303.026C244.478 306.064 256.797 307.684 266.382 307.785L266.488 297.786C257.813 297.694 246.196 296.208 231.526 293.226L229.534 303.026ZM360.62 115.057C309.273 169.587 264.469 229.776 226.207 295.614L234.853 300.638C272.738 235.449 317.086 175.877 367.9 121.912L360.62 115.057ZM125.824 120.966L364.207 123.484L364.313 113.485L125.93 110.966L125.824 120.966ZM116.814 181.507L130.764 117.023L120.99 114.909L107.04 179.393L116.814 181.507ZM154.214 178.903C132.236 177.243 118.349 176.102 112.454 175.478L111.4 185.422C117.477 186.066 131.529 187.218 153.46 188.875L154.214 178.903ZM169.624 151.35C158.835 159.108 151.917 169.664 148.959 182.79L158.715 184.989C161.146 174.202 166.698 165.771 175.462 159.469L169.624 151.35ZM205.24 139.626C192.136 139.487 180.188 143.446 169.548 151.406L175.538 159.413C184.456 152.741 194.271 149.511 205.134 149.625L205.24 139.626ZM234.482 142.18C227.161 140.574 217.36 139.754 205.24 139.626L205.134 149.625C216.98 149.75 225.995 150.556 232.339 151.948L234.482 142.18ZM109.126 332.237C148.227 263.852 190.914 203.233 237.174 150.356L229.647 143.772C182.901 197.204 139.838 258.379 100.445 327.273L109.126 332.237ZM349.212 327.337L104.838 324.755L104.732 334.755L349.107 337.337L349.212 327.337ZM362.034 267.848C357.537 292.381 351.691 313.216 344.542 330.418L353.777 334.256C361.268 316.229 367.284 294.673 371.87 269.651L362.034 267.848ZM315.425 271.492C336.52 272.285 353.602 273.035 366.682 273.742L367.222 263.757C354.065 263.045 336.922 262.293 315.801 261.499L315.425 271.492ZM302.383 299.07C311.241 292.739 317.053 281.901 320.475 267.663L310.752 265.327C307.607 278.414 302.661 286.58 296.568 290.934L302.383 299.07ZM270.234 307.826C282.956 307.96 293.815 305.193 302.383 299.07L296.568 290.934C290.185 295.496 281.585 297.945 270.34 297.826L270.234 307.826Z" fill="black" mask="url(#path-1-inside-1)"/>
<path d="M334.58 267.6H332.08V270.1V328V330.5H334.58H404.06H406.56V328.709C415.338 332.494 425.492 334.36 436.961 334.36H525.741C545.52 334.36 561.278 328.808 572.67 317.416C573.391 316.695 574.088 315.959 574.763 315.206C575.417 315.952 576.092 316.681 576.789 317.395L576.809 317.416L576.83 317.436C588.472 328.807 604.343 334.36 624.125 334.36H712.905C732.685 334.36 748.443 328.808 759.835 317.416C771.474 305.777 777.165 289.899 777.165 270.1V181.32C777.165 161.536 771.481 145.778 759.835 134.39C748.448 122.744 732.69 117.06 712.905 117.06H624.125C604.326 117.06 588.448 122.752 576.81 134.39C576.105 135.095 575.423 135.816 574.763 136.553C574.088 135.816 573.391 135.094 572.67 134.39C561.283 122.744 545.525 117.06 525.741 117.06H436.961C417.162 117.06 401.283 122.752 389.645 134.39C378.253 145.783 372.701 161.54 372.701 181.32V267.6H334.58ZM504.511 174.17C509.272 174.17 512.384 175.359 514.323 177.298C516.262 179.237 517.451 182.349 517.451 187.11V264.31C517.451 269.071 516.262 272.183 514.323 274.122C512.384 276.061 509.272 277.25 504.511 277.25H458.191C453.429 277.25 450.317 276.061 448.378 274.122C446.439 272.183 445.251 269.071 445.251 264.31V187.11C445.251 182.349 446.439 179.237 448.378 177.298C450.317 175.359 453.429 174.17 458.191 174.17H504.511ZM691.675 174.17C696.437 174.17 699.548 175.359 701.488 177.298C703.427 179.237 704.615 182.349 704.615 187.11V264.31C704.615 269.071 703.427 272.183 701.488 274.122C699.548 276.061 696.437 277.25 691.675 277.25H645.355C640.594 277.25 637.482 276.061 635.543 274.122C633.604 272.183 632.415 269.071 632.415 264.31V187.11C632.415 182.349 633.604 179.237 635.543 177.298C637.482 175.359 640.594 174.17 645.355 174.17H691.675Z" fill="white" stroke="black" stroke-width="5"/>
<path d="M428 459C412.867 460.333 399.2 461 387 461C380.467 461 375.667 459.467 372.6 456.4C369.533 453.333 368 448.533 368 442C368 436.933 369.267 432.733 371.8 429.4C373.8 426.733 376.533 424.933 380 424C377 423 374.567 421.267 372.7 418.8C370.9 416.267 370 413 370 409V408C370 401.933 371.533 397.433 374.6 394.5C377.667 391.5 382.467 390 389 390H421V404H394C390 404 388 406 388 410V413C388 417 390 419 394 419H410L411.5 411H428V419H436V433H428V459ZM391 447C398.333 447 404.667 446.833 410 446.5V433H392C388 433 386 435 386 439V442C386 443.533 386.433 444.767 387.3 445.7C388.233 446.567 389.467 447 391 447ZM488.973 459C476.506 460.333 465.506 461 455.973 461C451.439 461 447.806 459.633 445.073 456.9C442.339 454.167 440.973 450.533 440.973 446V423C440.973 418 442.373 414.1 445.173 411.3C448.039 408.433 451.973 407 456.973 407H488.973V420.5H462.473C459.806 420.5 458.473 421.833 458.473 424.5V444C458.473 445 458.806 445.833 459.473 446.5C460.139 447.167 460.973 447.5 461.973 447.5C467.973 447.5 476.973 447 488.973 446V459ZM550.953 445C550.953 450 549.52 453.933 546.653 456.8C543.853 459.6 539.953 461 534.953 461H511.953C506.953 461 503.02 459.6 500.153 456.8C497.353 453.933 495.953 450 495.953 445V422C495.953 417 497.353 413.1 500.153 410.3C503.02 407.433 506.953 406 511.953 406H534.953C539.953 406 543.853 407.433 546.653 410.3C549.52 413.1 550.953 417 550.953 422V445ZM533.453 423.5C533.453 420.833 532.12 419.5 529.453 419.5H517.453C514.786 419.5 513.453 420.833 513.453 423.5V443.5C513.453 446.167 514.786 447.5 517.453 447.5H529.453C532.12 447.5 533.453 446.167 533.453 443.5V423.5ZM597.441 460L596.441 455C593.308 457.067 590.075 458.6 586.741 459.6C583.475 460.533 580.708 461 578.441 461H573.941C569.408 461 565.775 459.633 563.041 456.9C560.308 454.167 558.941 450.533 558.941 446V423C558.941 418 560.341 414.1 563.141 411.3C566.008 408.433 569.941 407 574.941 407H595.441V390H612.941V460H597.441ZM583.441 446.5C586.975 446.5 590.975 445.833 595.441 444.5V420.5H580.441C577.775 420.5 576.441 421.833 576.441 424.5V443C576.441 444 576.775 444.833 577.441 445.5C578.108 446.167 578.941 446.5 579.941 446.5H583.441ZM644.93 409V460H627.43V422.5H619.93V409H644.93ZM627.43 389H644.93V403H627.43V389ZM684.461 420.5C680.928 420.5 676.928 421.167 672.461 422.5V460H654.961V407H670.461L671.461 412C674.594 409.933 677.794 408.433 681.061 407.5C684.394 406.5 687.194 406 689.461 406H693.961C698.494 406 702.128 407.367 704.861 410.1C707.594 412.833 708.961 416.467 708.961 421V460H691.461V424C691.461 423 691.128 422.167 690.461 421.5C689.794 420.833 688.961 420.5 687.961 420.5H684.461ZM752.449 456C745.983 457.333 740.316 458 735.449 458H731.949C727.416 458 723.783 456.633 721.049 453.9C718.316 451.167 716.949 447.533 716.949 443V423C716.949 418 718.349 414.1 721.149 411.3C724.016 408.433 727.949 407 732.949 407H769.949V463C769.949 467.533 768.583 471.167 765.849 473.9C763.116 476.633 759.483 478 754.949 478C744.483 478 732.816 477.333 719.949 476V463C732.683 464 742.349 464.5 748.949 464.5C749.949 464.5 750.783 464.167 751.449 463.5C752.116 462.833 752.449 462 752.449 461V456ZM740.449 444.5C744.649 444.5 748.649 444.167 752.449 443.5V420.5H738.449C735.783 420.5 734.449 421.833 734.449 424.5V441C734.449 442 734.783 442.833 735.449 443.5C736.116 444.167 736.949 444.5 737.949 444.5H740.449Z" fill="white"/>
</svg>
