<svg width="818" height="461" viewBox="0 0 818 461" fill="none" xmlns="http://www.w3.org/2000/svg">
<mask id="path-1-inside-1" fill="white">
<path fill-rule="evenodd" clip-rule="evenodd" d="M460.166 149.001L149.001 0L6.14822e-05 311.165L311.165 460.166L460.166 149.001ZM270.287 302.826L266.435 302.785C257.305 302.689 245.337 301.136 230.53 298.126C268.603 232.612 313.18 172.732 364.26 118.485L125.877 115.966L111.927 180.45C117.913 181.084 131.883 182.231 153.837 183.889C156.532 171.933 162.767 162.44 172.543 155.409C182.322 148.094 193.203 144.499 205.187 144.626C217.17 144.752 226.578 145.565 233.411 147.064C186.908 200.218 144.033 261.115 104.785 329.755L349.16 332.337C356.479 314.723 362.41 293.527 366.952 268.75C353.834 268.04 336.721 267.289 315.613 266.495C312.33 280.157 306.951 289.659 299.475 295.002C292 300.345 282.27 302.953 270.287 302.826Z"/>
</mask>
<path fill-rule="evenodd" clip-rule="evenodd" d="M460.166 149.001L149.001 0L6.14822e-05 311.165L311.165 460.166L460.166 149.001ZM270.287 302.826L266.435 302.785C257.305 302.689 245.337 301.136 230.53 298.126C268.603 232.612 313.18 172.732 364.26 118.485L125.877 115.966L111.927 180.45C117.913 181.084 131.883 182.231 153.837 183.889C156.532 171.933 162.767 162.44 172.543 155.409C182.322 148.094 193.203 144.499 205.187 144.626C217.17 144.752 226.578 145.565 233.411 147.064C186.908 200.218 144.033 261.115 104.785 329.755L349.16 332.337C356.479 314.723 362.41 293.527 366.952 268.75C353.834 268.04 336.721 267.289 315.613 266.495C312.33 280.157 306.951 289.659 299.475 295.002C292 300.345 282.27 302.953 270.287 302.826Z" fill="white"/>
<path d="M149.001 0L149.433 -0.901928L148.531 -1.33381L148.099 -0.431887L149.001 0ZM460.166 149.001L461.068 149.433L461.5 148.531L460.598 148.099L460.166 149.001ZM6.14822e-05 311.165L-0.901866 310.733L-1.33375 311.635L-0.431826 312.067L6.14822e-05 311.165ZM311.165 460.166L310.733 461.068L311.635 461.5L312.067 460.598L311.165 460.166ZM266.435 302.785L266.446 301.786L266.446 301.786L266.435 302.785ZM270.287 302.826L270.298 301.826L270.298 301.826L270.287 302.826ZM230.53 298.126L229.666 297.623L228.966 298.828L230.331 299.106L230.53 298.126ZM364.26 118.485L364.988 119.17L366.552 117.509L364.27 117.485L364.26 118.485ZM125.877 115.966L125.888 114.966L125.072 114.958L124.9 115.755L125.877 115.966ZM111.927 180.45L110.95 180.239L110.714 181.327L111.822 181.445L111.927 180.45ZM153.837 183.889L153.762 184.886L154.623 184.951L154.813 184.109L153.837 183.889ZM172.543 155.409L173.127 156.221L173.134 156.216L173.142 156.21L172.543 155.409ZM233.411 147.064L234.163 147.722L235.277 146.45L233.625 146.087L233.411 147.064ZM104.785 329.755L103.917 329.259L103.072 330.737L104.775 330.755L104.785 329.755ZM349.16 332.337L349.149 333.337L349.824 333.344L350.083 332.721L349.16 332.337ZM366.952 268.75L367.936 268.93L368.141 267.812L367.006 267.751L366.952 268.75ZM315.613 266.495L315.651 265.496L314.832 265.465L314.641 266.261L315.613 266.495ZM299.475 295.002L298.894 294.189L298.894 294.189L299.475 295.002ZM148.569 0.901928L459.734 149.903L460.598 148.099L149.433 -0.901928L148.569 0.901928ZM0.901989 311.597L149.903 0.431887L148.099 -0.431887L-0.901866 310.733L0.901989 311.597ZM311.597 459.264L0.431949 310.263L-0.431826 312.067L310.733 461.068L311.597 459.264ZM459.264 148.569L310.263 459.734L312.067 460.598L461.068 149.433L459.264 148.569ZM266.425 303.785L270.276 303.826L270.298 301.826L266.446 301.786L266.425 303.785ZM230.331 299.106C245.165 302.121 257.204 303.688 266.425 303.785L266.446 301.786C257.407 301.69 245.509 300.15 230.73 297.146L230.331 299.106ZM363.532 117.799C312.399 172.103 267.776 232.045 229.666 297.623L231.395 298.628C269.43 233.18 313.961 173.361 364.988 119.17L363.532 117.799ZM125.867 116.966L364.249 119.485L364.27 117.485L125.888 114.966L125.867 116.966ZM112.904 180.662L126.854 116.178L124.9 115.755L110.95 180.239L112.904 180.662ZM153.912 182.892C131.953 181.233 118 180.088 112.032 179.456L111.822 181.445C117.825 182.081 131.812 183.228 153.762 184.886L153.912 182.892ZM171.959 154.597C161.981 161.773 155.609 171.479 152.862 183.669L154.813 184.109C157.454 172.387 163.553 163.106 173.127 156.221L171.959 154.597ZM205.197 143.626C192.99 143.497 181.895 147.164 171.944 154.609L173.142 156.21C182.749 149.023 193.417 145.501 205.176 145.626L205.197 143.626ZM233.625 146.087C226.695 144.567 217.208 143.753 205.197 143.626L205.176 145.626C217.132 145.752 226.461 146.563 233.196 148.041L233.625 146.087ZM105.653 330.252C144.872 261.663 187.709 200.821 234.163 147.722L232.658 146.405C186.106 199.615 143.194 260.568 103.917 329.259L105.653 330.252ZM349.17 331.337L104.796 328.755L104.775 330.755L349.149 333.337L349.17 331.337ZM365.969 268.569C361.436 293.298 355.522 314.422 348.236 331.953L350.083 332.721C357.437 315.024 363.385 293.756 367.936 268.93L365.969 268.569ZM315.576 267.494C336.681 268.288 353.788 269.039 366.898 269.748L367.006 267.751C353.88 267.041 336.761 266.29 315.651 265.496L315.576 267.494ZM300.057 295.816C307.809 290.275 313.275 280.506 316.586 266.729L314.641 266.261C311.385 279.808 306.093 289.044 298.894 294.189L300.057 295.816ZM270.276 303.826C282.407 303.954 292.363 301.315 300.057 295.816L298.894 294.189C291.637 299.375 282.133 301.951 270.298 301.826L270.276 303.826Z" fill="black" mask="url(#path-1-inside-1)"/>
<path d="M376.58 274.6H376.08V275.1V333V333.5H376.58H446.06H446.56V333V330.578C455.656 335.104 466.462 337.36 478.961 337.36H567.741C587.136 337.36 602.331 331.926 613.256 321.002C614.5 319.757 615.675 318.462 616.781 317.115C617.859 318.46 619.005 319.754 620.22 320.997L620.22 320.997L620.228 321.006C631.409 331.926 646.729 337.36 666.125 337.36H754.905C774.301 337.36 789.496 331.926 800.421 321.002C811.601 309.822 817.165 294.5 817.165 275.1V186.32C817.165 166.923 811.603 151.729 800.421 140.805C789.497 129.623 774.302 124.06 754.905 124.06H666.125C646.726 124.06 631.404 129.624 620.224 140.804C619.008 142.02 617.86 143.289 616.781 144.61C615.675 143.289 614.5 142.02 613.256 140.804C602.332 129.623 587.137 124.06 567.741 124.06H478.961C459.561 124.06 444.239 129.624 433.059 140.804C422.134 151.729 416.701 166.924 416.701 186.32V274.6H376.58ZM546.511 177.17C551.58 177.17 555.291 178.437 557.737 180.884C560.183 183.33 561.451 187.04 561.451 192.11V269.31C561.451 274.38 560.183 278.09 557.737 280.536C555.291 282.983 551.58 284.25 546.511 284.25H500.191C495.121 284.25 491.411 282.983 488.964 280.536C486.518 278.09 485.251 274.38 485.251 269.31V192.11C485.251 187.04 486.518 183.33 488.964 180.884C491.411 178.437 495.121 177.17 500.191 177.17H546.511ZM733.675 177.17C738.745 177.17 742.455 178.437 744.902 180.884C747.348 183.33 748.615 187.04 748.615 192.11V269.31C748.615 274.38 747.348 278.09 744.902 280.536C742.455 282.983 738.745 284.25 733.675 284.25H687.355C682.286 284.25 678.575 282.983 676.129 280.536C673.682 278.09 672.415 274.38 672.415 269.31V192.11C672.415 187.04 673.682 183.33 676.129 180.884C678.575 178.437 682.286 177.17 687.355 177.17H733.675Z" fill="white" stroke="black"/>
</svg>
